<svg width="80" height="100" viewBox="0 0 80 100" fill="none" xmlns="http://www.w3.org/2000/svg">
<path d="M69.9468 45.7373C67.766 47.5067 65.9574 48.5255 65.9574 48.5255V54.2091C67.5 55.9249 69.0425 57.319 70.1596 59.8928C72.3404 56.0322 71.9681 50.4021 69.9468 45.7373ZM68.1915 64.3432C68.1915 64.3432 67.766 61.9839 65.8511 59.8391L61.5426 59.9464C61.5426 59.9464 55.7447 64.8257 52.234 64.933C52.234 64.933 54.2021 68.4719 55.1596 70.3485C57.1277 69.9196 60.5319 68.4182 61.9149 66.8633C61.9149 66.8633 62.8191 69.7587 62.6596 73.1367C64.5745 72.0643 67.234 69.0617 68.1915 64.3432ZM62.6596 54.1019V48.4182C62.6596 48.4182 60.1064 47.6139 57.3404 45.5228C51.8085 46.3271 45.1596 51.7962 45.1596 51.7962C45.1596 51.7962 47.3936 55.9786 49.8936 60.5362C54.2021 61.126 60.5851 55.7641 62.6596 54.1019ZM77.3404 77.6408L73.7766 73.7802C72.766 84.1823 67.5532 93.0831 58.0319 99.2493L56.5957 93.6193C48.5106 99.3566 34.6277 103.11 22.6596 96.4611C24.1489 89.008 25.4787 81.5014 22.6596 72.4397C16.0638 82.5201 10.2128 86.4343 10.2128 86.4343C5.74468 79.0349 6.17021 64.2896 7.5 59.8928L0 62.1984C0 57.2118 3.61702 46.7024 8.93617 40.7507L4.25532 40.0536C7.44681 33.7265 12.1277 28.2574 17.8723 24.1287C16.117 26.8097 16.117 33.4584 21.1702 35.9786C19.0426 32.2788 18.7766 27.6676 21.0106 25.3083C23.2447 22.8954 27.0213 23.7534 29.4681 25.5764C28.7234 23.4853 26.6489 20.9115 23.5106 20.7507C29.4681 17.748 36.2234 16.0322 43.4043 16.0322C44.734 16.0322 46.0638 16.0858 47.3936 16.193C49.4681 16.9973 52.5532 19.8928 53.9362 21.7158C53.9362 21.7158 54.0426 19.6247 52.8191 17.0509C60.5851 18.9276 64.2553 21.9839 65.7979 23.4853C66.117 26.756 67.1277 28.7399 68.4574 31.9035C65.9574 29.1153 59.6277 24.6649 56.6489 23.5925C56.6489 23.5925 56.383 26.4343 55.3723 27.8284C49.3617 23.5925 46.4362 22.5201 46.4362 22.5201C39.8404 23.4316 35.5851 25.8981 33.2979 27.882L35.3191 29.5442C31.3298 30.7775 28.7234 34.1019 28.7234 34.1019C28.7766 34.1555 32.2872 34.6381 32.2872 34.6381C32.2872 34.6381 31.9149 38.7131 37.0745 41.2332C41.4894 43.4316 47.8723 40.6971 53.883 43.0563C49.9468 38.5523 47.234 36.5684 47.234 36.5684C47.234 36.5684 45.6915 36.2467 44.5745 36.2467C43.1915 36.2467 41.117 36.5147 38.883 35.6568C37.8191 35.2279 36.5426 34.5308 35.5851 33.8874C35.5851 33.8874 38.3511 31.0992 42.3936 30.4558C42.3936 30.4558 46.0638 31.4745 48.9362 33.5657C50.8511 31.7426 52.8723 31.7962 52.8723 31.7962C52.8723 31.7962 50.9043 33.6193 51.4894 35.8177C54.3617 38.3378 57.5 41.9839 57.5 41.9839C60.6915 40.2681 67.6064 40.6434 69.0426 42.3056C67.234 40 64.6277 38.0697 62.6064 36.4075C62.3404 35.5496 60.1596 32.5469 59.7872 32.2788C59.7872 32.2788 61.8617 32.9223 63.7234 34.5845C64.2553 33.8338 65.266 33.0831 66.6489 32.7078C68.0319 33.8874 68.2979 35.6568 68.2447 35.9249C67.6064 36.6756 66.9681 36.9973 66.9681 36.9973L70.3723 40.5898L70.6915 38.0161C78.5638 49.0617 82.766 61.7158 77.3404 77.6408ZM15.7447 8.36461C20.266 10.4021 23.1383 12.9223 23.6702 13.3512C23.4574 12.2252 22.5532 6.70241 22.0213 3.27078C24.6277 5.04022 30.7447 9.22252 32.7128 10.563C33.5638 8.09652 36.383 0 36.383 0C36.383 0 41.4894 8.15014 42.3404 9.437C43.4043 8.36461 49.5213 1.6622 51.0638 0C51.3298 3.86059 51.7021 9.32976 51.7553 10.1877C52.0745 9.75871 54.4149 6.54156 58.2979 3.59249C56.5957 6.86327 55.7979 11.4209 55.4255 15.067C51.5957 13.9946 47.5 13.4584 43.2979 13.4584C35.3723 13.4048 27.8191 15.496 21.2766 19.1421C20.1064 15.6032 18.2447 11.2601 15.7447 8.36461Z" fill="#3D195B"/>
</svg>
