<svg width="103" height="100" viewBox="0 0 103 100" fill="none" xmlns="http://www.w3.org/2000/svg">
<path d="M0 56.5433C1.5218 60.5817 5.07391 65.126 5.07391 63.6119C5.07391 62.0977 5.58056 61.0876 5.58056 61.0876C36.5307 77.7472 44.65 47.9623 44.65 47.9623C49.2173 67.6521 40.5913 69.6704 27.9065 76.739C15.2217 83.8076 24.8629 94.4086 24.8629 94.4086C26.3847 81.2834 35.5174 77.7491 35.5174 77.7491C19.2805 101.981 51.2458 99.9631 51.2458 99.9631C45.6652 94.9146 45.6652 89.8661 60.8869 77.7491C76.1087 65.632 59.8718 46.4482 59.8718 46.4482C82.1977 59.5735 74.0783 91.8844 74.0783 91.8844C119.237 48.4683 57.8415 30.2927 57.8415 30.2927C78.6456 31.805 92.3455 47.4564 92.3455 47.4564C87.0619 27.8608 76.3239 23.1982 75.1937 22.7569C92.8893 29.7092 103 9.59284 103 9.59284C103 9.59284 97.9261 19.1857 74.0783 8.07866C50.2306 -3.02835 35.5174 8.07866 35.5174 8.07866C36.024 2.52424 39.0695 0 39.0695 0C8.11751 13.1253 15.2217 33.3192 15.2217 33.3192C9.64117 39.3777 1.5218 53.009 1.5218 53.009C5.58056 52.5049 8.62602 54.019 8.62602 54.019L6.08906 56.5433C3.0436 59.5716 0 56.5433 0 56.5433ZM32.4738 26.2524C36.0259 14.1354 49.7258 20.1939 49.7258 20.1939C44.6519 19.6898 41.6083 22.214 41.6083 22.214C52.7713 23.7282 50.2343 40.8937 50.2343 40.8937C46.1755 33.8251 38.0562 31.8069 38.0562 31.8069C41.6083 30.7968 43.6367 31.3027 43.6367 31.3027C40.5913 27.7666 32.4738 26.2524 32.4738 26.2524ZM15.7284 45.4363C15.7284 45.4363 18.2653 38.8736 22.8326 38.8736C27.3999 38.8736 26.8914 39.3777 29.9368 38.8736C29.9368 38.8736 27.9065 42.912 24.8629 43.418C21.8174 43.9221 18.7738 41.3978 15.7284 45.4363Z" fill="#0073D8"/>
</svg>
